<svg id="Группа_6" data-name="Группа 6" xmlns="http://www.w3.org/2000/svg" width="59.97" height="60" viewBox="0 0 59.97 60">
  <defs>
    <style>
      .cls-1 {
        fill: #54aaff;
      }

      .cls-1, .cls-2 {
        fill-rule: evenodd;
      }

      .cls-2 {
        fill: #fff;
      }
    </style>
  </defs>
  <path class="cls-1" d="M4027.98,487.99a30,30,0,1,1-29.99,30A30,30,0,0,1,4027.98,487.99Z" transform="translate(-3998 -488)"/>
  <path id="Forma_1" data-name="Forma 1" class="cls-2" d="M4041.19,506h-26.38a2.852,2.852,0,0,0-2.81,2.885v19.23a2.855,2.855,0,0,0,2.81,2.885h26.38a2.855,2.855,0,0,0,2.81-2.885v-19.23A2.855,2.855,0,0,0,4041.19,506Zm-0.39,1.923-12.74,13.066-12.85-13.066h25.59Zm-26.93,19.794V509.274l9.03,9.182Zm1.33,1.36,9.04-9.267,3.16,3.219a0.929,0.929,0,0,0,1.33,0l3.08-3.166,8.99,9.217h-25.6Zm26.92-1.36-8.98-9.217,8.98-9.217v18.434Z" transform="translate(-3998 -488)"/>
</svg>
