<?xml version="1.0" standalone="no"?>
<!DOCTYPE svg PUBLIC "-//W3C//DTD SVG 20010904//EN"
 "http://www.w3.org/TR/2001/REC-SVG-20010904/DTD/svg10.dtd">
<svg version="1.0" xmlns="http://www.w3.org/2000/svg"
 width="139.000000pt" height="139.000000pt" viewBox="0 0 139.000000 139.000000"
 preserveAspectRatio="xMidYMid meet">
<metadata>
Created by potrace 1.11, written by Peter Selinger 2001-2013
</metadata>
<g transform="translate(0.000000,139.000000) scale(0.100000,-0.100000)"
fill="#000000" stroke="none">
<path d="M234 1381 c-2 -2 -4 -314 -4 -693 l0 -688 460 0 c253 0 461 3 461 8
1 4 2 62 3 130 2 116 1 123 -19 127 -11 2 -144 4 -295 4 -151 -1 -280 0 -286
0 -8 1 -11 156 -10 556 1 363 -2 555 -9 556 -30 4 -297 3 -301 0z"/>
</g>
</svg>
