<?xml version="1.0" encoding="utf-8"?>
<!-- Generator: Adobe Illustrator 19.2.1, SVG Export Plug-In . SVG Version: 6.00 Build 0)  -->
<svg version="1.1" id="Слой_1" xmlns="http://www.w3.org/2000/svg" xmlns:xlink="http://www.w3.org/1999/xlink" x="0px" y="0px"
	 viewBox="0 0 291.9 426.1" style="enable-background:new 0 0 291.9 426.1;" xml:space="preserve">
<g transform="translate(0.000000,430.000000) scale(0.050000,-0.050000)">
	<path d="M2330.8,8559l-53-42l-5-1093l-5-1094l-190-11c-283-18-434-110-544-335l-66-133l-6-393l-7-393l-167-9
		c-443-23-612-229-630-766l-10-320l-114-14c-206-26-365-141-471-342l-55-104l-7-520c-25-1890,548-2739,1951-2892
		c631-68,1007,40,1358,390c361,361,404,510,422,1487l12,625h976c1031,0,1054,2,1096,93c38,83,31,5752-7,5826c-44,84,23,81-1760,81
		C2395.8,8600,2382.8,8600,2330.8,8559z M5030.8,8198c7-182,181-379,363-409c41-7,85-16,99-20c20-6,25-463,25-2198V3380h-55
		c-187-1-386-187-434-405l-12-55h-639h-640l-3,725c-4,1046-5,1088-53,1210l-40,105h53c199,1,370,146,445,378l46,142h236
		c211,0,236-4,236-35c0-52-86-226-147-298c-68-80-70-71,50-159l103-76l76,86c82,91,152,254,171,394l12,86l113,6l112,6l6,94l6,94
		l-114,6l-115,6l-27,118c-61,269-230,412-486,412c-238,0-367-117-461-420l-34-110l-213-6c-162-4-212,1-212,20c0,38,112,269,138,285
		c12,7,22,21,22,30c0,18-185,161-207,161c-35,0-165-240-195-357l-33-133l-114-6l-113-6l6-94l6-94l109-10c109-10,110-11,126-88
		c19-94,15-99-52-73c-160,61-344,45-558-48c-33-14-35,52-35,1247v1262h55c188,2,402,222,410,421l3,79h981h981L5030.8,8198z
		 M2264.8,5067c7-514,13-1264,13-1669v-735l53-42c73-57,140-52,209,17l58,59v996c0,624,8,1025,21,1071c99,356,622,347,758-12
		c36-94,31-3288-6-3486c-111-613-603-922-1346-847c-1224,123-1692,796-1696,2441c-1,686,23,762,248,768l71,2l11-410
		c6-225,13-412,15-414c27-31,134-64,174-54c131,33,130,28,130,933c0,1017,3,1026,342,1050l138,10v-647c1-696,5-726,103-773
		c65-31,167,0,202,62c19,33,25,326,25,1223c0,1144,1,1182,40,1248c57,96,154,142,301,142h122L2264.8,5067z M4589.8,5852
		c42-42,68-88,68-120v-52h-199c-221,0-229,4-191,94C4336.8,5937,4471.8,5970,4589.8,5852z M3857.8,5455c-1-167-237-245-326-108
		c-82,126-75,133,135,133C3805.8,5480,3857.8,5473,3857.8,5455z"/>
</g>
</svg>
