<svg id="SvgjsSvg1000" xmlns="http://www.w3.org/2000/svg" version="1.1" xmlns:xlink="http://www.w3.org/1999/xlink" xmlns:svgjs="http://svgjs.com/svgjs" width="27" height="26" viewBox="0 0 27 26"><title>Rounded Rectangle 1</title><desc>Created with Avocode.</desc><defs id="SvgjsDefs1001"><clipPath id="SvgjsClipPath1009"><path id="SvgjsPath1008" d="M18 74.9998L39 74.9998C40.6569 74.9998 42 76.34309999999999 42 77.9999L42 96.9999C42 98.6567 40.6569 99.99969999999999 39 99.99969999999999L18 99.99969999999999C16.3431 99.99969999999999 15 98.65669999999999 15 96.9999L15 77.9999C15 76.34309999999999 16.3431 74.9998 18 74.9998Z " fill="#ffffff"></path></clipPath></defs><path id="SvgjsPath1007" d="M18 74.9998L39 74.9998C40.6569 74.9998 42 76.34309999999999 42 77.9999L42 96.9999C42 98.6567 40.6569 99.99969999999999 39 99.99969999999999L18 99.99969999999999C16.3431 99.99969999999999 15 98.65669999999999 15 96.9999L15 77.9999C15 76.34309999999999 16.3431 74.9998 18 74.9998Z " fill-opacity="0" fill="#ffffff" stroke-dasharray="0" stroke-linejoin="miter" stroke-linecap="butt" stroke-opacity="1" stroke="#2a77ed" stroke-miterlimit="50" stroke-width="2" clip-path="url(&quot;#SvgjsClipPath1009&quot;)" transform="matrix(1,0,0,1,-15,-74)"></path><path id="SvgjsPath1010" d="M23 83.999L23 82.9986L34 82.9986L34 83.999ZM23 87.9985L23 86.9988L29.6019 86.9988L29.6019 87.9985ZM23 91.9994L23 90.9982L34 90.9982L34 91.9994Z " fill="#2a77ed" fill-opacity="1" transform="matrix(1,0,0,1,-15,-74)"></path></svg>