<?xml version="1.0" encoding="utf-8"?>
<!-- Generator: Adobe Illustrator 19.2.1, SVG Export Plug-In . SVG Version: 6.00 Build 0)  -->
<svg version="1.1" id="Cog" xmlns="http://www.w3.org/2000/svg" xmlns:xlink="http://www.w3.org/1999/xlink" x="0px" y="0px"
	 viewBox="0 0 16.8 16.8" style="enable-background:new 0 0 16.8 16.8;" xml:space="preserve">
<path d="M15.2,8.4c0-1,0.6-1.9,1.6-2.4c-0.2-0.6-0.4-1.1-0.7-1.7c-1.1,0.3-2-0.1-2.7-0.9c-0.7-0.7-1-1.6-0.7-2.7
	C12.2,0.4,11.6,0.2,11,0c-0.6,1-1.6,1.6-2.6,1.6C7.4,1.6,6.3,1,5.8,0C5.2,0.2,4.6,0.4,4.1,0.7c0.3,1.1,0.1,2-0.7,2.7
	C2.7,4.1,1.8,4.6,0.7,4.3C0.4,4.8,0.2,5.4,0,6c1,0.6,1.6,1.4,1.6,2.4c0,1-0.6,2.1-1.6,2.6c0.2,0.6,0.4,1.1,0.7,1.7
	c1.1-0.3,2-0.1,2.7,0.7c0.7,0.7,1,1.6,0.7,2.7c0.5,0.3,1.1,0.5,1.7,0.7c0.6-1,1.6-1.6,2.6-1.6c1,0,2.1,0.6,2.6,1.6
	c0.6-0.2,1.1-0.4,1.7-0.7c-0.3-1.1-0.1-2,0.7-2.7c0.7-0.7,1.6-1.2,2.7-0.9c0.3-0.5,0.5-1.1,0.7-1.7C15.8,10.3,15.2,9.4,15.2,8.4z
	 M8.4,12.1c-2,0-3.7-1.6-3.7-3.7c0-2,1.6-3.7,3.7-3.7c2,0,3.7,1.6,3.7,3.7C12.1,10.4,10.4,12.1,8.4,12.1z"/>
</svg>
