<?xml version="1.0" encoding="utf-8"?>
<!-- Generator: Adobe Illustrator 19.2.1, SVG Export Plug-In . SVG Version: 6.00 Build 0)  -->
<svg version="1.1" id="Credit_card" xmlns="http://www.w3.org/2000/svg" xmlns:xlink="http://www.w3.org/1999/xlink" x="0px"
	 y="0px" viewBox="0 0 20 14" style="enable-background:new 0 0 20 14;" xml:space="preserve">
<path d="M18,0H2C0.9,0,0,0.9,0,2v10c0,1.1,0.9,2,2,2h16c1.1,0,2-0.9,2-2V2C20,0.9,19.1,0,18,0z M18,12H2V6h16V12z M18,3H2V2h16V3z
	 M4,8.1v0.6h0.6V8.1H4z M7.6,9.3v0.6h1.2V9.3h0.6V8.7H10V8.1H8.8v0.6H8.2v0.6H7.6z M10,9.9V9.3H9.4v0.6H10z M7,9.9V9.3H5.8v0.6H7z
	 M7.6,8.7h0.6V8.1H7v1.2h0.6V8.7z M5.2,9.3h0.6V8.7h0.6V8.1H5.2v0.6H4.6v0.6H4v0.6h1.2V9.3z"/>
</svg>
