<?xml version="1.0" standalone="no"?>
<!DOCTYPE svg PUBLIC "-//W3C//DTD SVG 20010904//EN"
 "http://www.w3.org/TR/2001/REC-SVG-20010904/DTD/svg10.dtd">
<svg version="1.0" xmlns="http://www.w3.org/2000/svg"
 width="900.000000pt" height="900.000000pt" viewBox="0 0 900.000000 900.000000"
 preserveAspectRatio="xMidYMid meet">
<metadata>
Created by potrace 1.10, written by Peter Selinger 2001-2011
</metadata>
<g transform="translate(0.000000,900.000000) scale(0.100000,-0.100000)"
fill="#000000" stroke="none">
<path d="M4123 8988 c1 -9 -25 -15 -88 -21 -96 -8 -243 -29 -365 -52 -41 -8
-86 -16 -100 -19 -81 -14 -238 -55 -445 -116 -104 -30 -330 -117 -465 -178
-69 -31 -328 -159 -355 -175 -11 -7 -38 -23 -60 -37 -22 -14 -48 -29 -58 -33
-45 -17 -376 -246 -501 -347 -176 -142 -437 -388 -551 -520 -41 -47 -146 -172
-165 -196 -103 -129 -331 -458 -347 -501 -3 -10 -12 -25 -18 -33 -28 -34 -145
-260 -225 -435 -61 -135 -149 -363 -180 -470 -61 -207 -102 -364 -116 -445 -3
-14 -11 -59 -19 -100 -22 -119 -43 -266 -54 -385 -14 -143 -14 -727 0 -870 19
-205 73 -514 114 -665 7 -25 21 -74 30 -110 34 -125 124 -389 175 -510 75
-179 241 -510 276 -551 8 -8 14 -19 14 -23 0 -5 14 -28 30 -53 17 -24 30 -46
30 -48 0 -8 154 -231 214 -310 143 -188 240 -299 416 -475 129 -130 239 -230
380 -343 30 -25 216 -162 232 -172 9 -5 51 -34 93 -62 41 -29 77 -53 80 -53 2
0 24 -13 48 -30 25 -16 48 -30 53 -30 4 0 15 -6 23 -14 41 -35 372 -201 551
-276 122 -51 376 -138 510 -175 36 -9 85 -23 110 -30 151 -41 460 -95 665
-114 143 -14 727 -14 870 0 205 19 514 73 665 114 25 7 74 21 110 30 134 37
388 124 510 175 179 75 510 241 551 276 8 8 19 14 23 14 5 0 28 14 53 30 24
17 46 30 48 30 13 0 309 209 405 287 259 208 521 470 720 719 84 105 290 395
290 409 0 2 14 24 30 48 17 25 30 48 30 53 0 4 6 15 14 23 35 41 201 372 276
551 46 110 143 386 160 455 4 17 18 66 30 110 33 117 52 202 60 270 5 33 13
78 19 100 15 58 33 195 40 305 7 96 15 125 32 115 5 -4 9 138 9 365 0 245 -3
369 -10 365 -17 -10 -30 42 -30 118 -1 40 -7 101 -15 137 -8 36 -14 84 -15
108 0 23 -7 59 -15 79 -8 19 -15 53 -15 74 0 37 -6 67 -47 224 -52 201 -135
453 -203 615 -76 183 -240 509 -276 551 -8 8 -14 20 -14 26 0 5 -13 29 -30 51
-16 23 -30 44 -30 47 0 8 -152 228 -214 310 -79 104 -127 163 -241 295 -39 45
-310 316 -355 355 -132 114 -191 162 -295 241 -82 62 -302 214 -310 214 -3 0
-24 14 -47 30 -22 17 -45 30 -49 30 -4 0 -27 12 -51 28 -69 44 -76 47 -223
120 -242 121 -486 221 -660 272 -207 61 -364 102 -445 116 -14 3 -59 11 -100
19 -122 23 -269 44 -365 52 -63 6 -89 12 -87 21 1 9 -77 12 -368 12 -291 0
-369 -3 -367 -12z m792 -584 c167 -21 309 -43 380 -59 166 -39 244 -59 400
-105 51 -15 119 -40 137 -50 10 -6 23 -10 30 -10 33 0 399 -168 550 -253 349
-197 636 -421 927 -721 261 -271 470 -565 658 -926 59 -115 183 -396 183 -417
0 -7 4 -21 10 -31 10 -18 35 -86 50 -137 91 -308 126 -476 165 -781 22 -169
22 -692 0 -853 -43 -316 -79 -488 -165 -776 -15 -53 -40 -119 -50 -137 -6 -10
-10 -24 -10 -31 0 -7 -29 -80 -64 -162 -139 -321 -282 -567 -494 -850 -63 -84
-105 -134 -217 -261 -29 -34 -152 -157 -211 -214 -227 -216 -493 -413 -767
-569 -155 -87 -531 -261 -567 -261 -9 0 -20 -4 -25 -8 -11 -10 -178 -66 -265
-89 -249 -66 -404 -96 -665 -128 -152 -19 -663 -22 -785 -5 -41 6 -100 13
-130 16 -134 12 -357 58 -580 117 -87 23 -254 79 -265 89 -5 4 -16 8 -25 8
-36 0 -400 168 -567 262 -238 134 -477 306 -709 513 -285 254 -586 631 -783
978 -90 161 -261 530 -261 564 0 7 -4 21 -10 31 -22 38 -65 176 -113 362 -46
180 -72 324 -102 557 -22 171 -22 690 0 852 25 184 46 311 61 376 41 177 58
244 104 400 15 51 40 119 50 137 6 10 10 23 10 30 0 33 168 399 253 550 359
637 875 1152 1515 1515 148 83 516 253 550 253 7 0 20 4 30 10 18 10 86 35
137 50 156 46 234 66 400 105 57 13 150 28 345 56 200 29 664 31 885 3z"/>
<path d="M5825 6171 c-16 -4 -46 -16 -65 -26 -19 -10 -307 -290 -640 -622
-333 -333 -613 -609 -622 -614 -15 -8 -116 89 -613 586 -328 327 -613 606
-633 619 -20 14 -63 32 -94 42 -54 16 -60 16 -120 0 -117 -32 -182 -97 -214
-214 -16 -60 -16 -66 0 -120 10 -31 28 -73 40 -92 13 -19 292 -304 620 -632
512 -511 596 -600 587 -615 -5 -10 -280 -289 -610 -619 -666 -667 -651 -648
-651 -774 0 -81 23 -134 83 -194 59 -59 123 -86 202 -86 119 0 114 -4 777 660
329 329 606 601 614 604 12 4 181 -159 608 -585 325 -325 605 -603 623 -616
44 -34 147 -65 189 -57 132 25 209 92 248 217 18 56 18 62 1 123 -9 35 -30 82
-46 103 -15 22 -294 305 -618 630 -405 405 -589 595 -585 605 3 8 279 289 614
623 411 412 615 623 631 653 19 37 23 60 23 130 0 74 -4 91 -27 130 -54 92
-127 139 -224 145 -37 2 -81 1 -98 -4z"/>
</g>
</svg>
