<?xml version="1.0" encoding="utf-8"?>
<!-- Generator: Adobe Illustrator 19.2.1, SVG Export Plug-In . SVG Version: 6.00 Build 0)  -->
<svg version="1.1" id="Dots_three_horizontal" xmlns="http://www.w3.org/2000/svg" xmlns:xlink="http://www.w3.org/1999/xlink"
	 x="0px" y="0px" viewBox="0 0 18.4 4.4" style="enable-background:new 0 0 18.4 4.4;" xml:space="preserve">
<path d="M9.2,0C8,0,7,1,7,2.2s1,2.2,2.2,2.2s2.2-1,2.2-2.2S10.4,0,9.2,0z M2.2,0C1,0,0,1,0,2.2s1,2.2,2.2,2.2s2.2-1,2.2-2.2
	S3.4,0,2.2,0z M16.2,0C15,0,14,1,14,2.2s1,2.2,2.2,2.2s2.2-1,2.2-2.2S17.4,0,16.2,0z"/>
</svg>
