<?xml version="1.0" encoding="utf-8"?>
<!-- Generator: Adobe Illustrator 19.2.1, SVG Export Plug-In . SVG Version: 6.00 Build 0)  -->
<svg version="1.1" id="Eye" xmlns="http://www.w3.org/2000/svg" xmlns:xlink="http://www.w3.org/1999/xlink" x="0px" y="0px"
	 viewBox="0 0 20 11.2" style="enable-background:new 0 0 20 11.2;" xml:space="preserve">
<path d="M10,0C3.4,0,0,4.8,0,5.6c0,0.8,3.4,5.6,10,5.6c6.6,0,10-4.8,10-5.6C20,4.8,16.6,0,10,0z M10,9.9C7.5,9.9,5.6,8,5.6,5.6
	s2-4.3,4.4-4.3s4.4,1.9,4.4,4.3S12.5,9.9,10,9.9z M10,5.6c-0.4-0.4,0.7-2.2,0-2.2c-1.2,0-2.2,1-2.2,2.2s1,2.2,2.2,2.2
	c1.2,0,2.2-1,2.2-2.2C12.2,5.1,10.3,6,10,5.6z"/>
</svg>
