<?xml version="1.0" encoding="utf-8"?>
<!-- Generator: Adobe Illustrator 19.2.1, SVG Export Plug-In . SVG Version: 6.00 Build 0)  -->
<svg version="1.1" id="Google_x2B_" xmlns="http://www.w3.org/2000/svg" xmlns:xlink="http://www.w3.org/1999/xlink" x="0px"
	 y="0px" viewBox="0 0 18 17.6" style="enable-background:new 0 0 18 17.6;" xml:space="preserve">
<path d="M0.9,4.4c0,1.5,0.5,2.6,1.5,3.2c0.8,0.5,1.7,0.6,2.2,0.6c0.1,0,0.2,0,0.3,0c0,0-0.2,1,0.6,2h0c-1.3,0-5.5,0.3-5.5,3.7
	c0,3.5,3.9,3.7,4.6,3.7c0.1,0,0.1,0,0.1,0c0,0,0.1,0,0.2,0c0.5,0,1.8-0.1,3-0.6c1.5-0.8,2.3-2.1,2.3-3.9c0-1.8-1.2-2.8-2.1-3.6
	c-0.5-0.5-1-0.9-1-1.3c0-0.4,0.3-0.7,0.8-1.1C8.6,6.5,9.2,5.7,9.2,4c0-1.5-0.2-2.4-1.4-3.1C8,0.9,8.4,0.8,8.6,0.8
	c0.6-0.1,1.6-0.2,1.6-0.7V0H5.6C5.6,0,0.9,0.2,0.9,4.4z M8.4,13.4c0.1,1.4-1.1,2.4-2.9,2.6c-1.8,0.1-3.3-0.7-3.4-2.1
	c0-0.7,0.3-1.3,0.8-1.9c0.6-0.5,1.4-0.9,2.3-0.9c0.1,0,0.2,0,0.3,0C7.1,11.1,8.3,12.1,8.4,13.4z M7.2,3.4C7.6,5,6.9,6.7,5.9,7
	C5.7,7,5.6,7,5.5,7c-1,0-2-1-2.3-2.4c-0.2-0.8-0.2-1.5,0-2.1c0.2-0.6,0.6-1.1,1.2-1.2c0.1,0,0.3-0.1,0.4-0.1
	C5.9,1.2,6.7,1.7,7.2,3.4z M15,6.8v-3h-2v3h-3v2h3v3h2v-3h3v-2H15z"/>
</svg>
