<?xml version="1.0" encoding="utf-8"?>
<!-- Generator: Adobe Illustrator 19.2.1, SVG Export Plug-In . SVG Version: 6.00 Build 0)  -->
<svg version="1.1" id="Слой_1" xmlns="http://www.w3.org/2000/svg" xmlns:xlink="http://www.w3.org/1999/xlink" x="0px" y="0px"
	 viewBox="0 0 293.1 211" style="enable-background:new 0 0 293.1 211;" xml:space="preserve">
<g transform="translate(0.000000,211.000000) scale(0.050000,-0.050000)">
	<path d="M2764.8,4200c-331-84-561-375-564-710c-1-193,35-270,127-270c85,0,100,34,97,221c-6,365,278,617,610,541
		c558-126,526-911-40-1003c-169-27-174-37-182-345l-7-264l-542-330c-558-339-1538-941-1873-1151c-460-288-522-638-143-824l112-55
		h2570h2570l117,57c377,186,315,533-148,822c-359,225-1332,822-1874,1151l-544,330v192l-1,192l85,25c433,126,648,610,454,1019
		C3448.8,4096,3074.8,4278,2764.8,4200z M3909.8,1589c1367-836,1635-1006,1680-1064c86-108,24-240-132-283c-109-30-4947-30-5056,0
		c-157,43-218,175-132,284c44,55,437,304,1650,1043c429,262,829,506,889,544c61,37,115,67,122,67S3377.8,1914,3909.8,1589z"/>
</g>
</svg>
