<?xml version="1.0" encoding="utf-8"?>
<!-- Generator: Adobe Illustrator 19.2.1, SVG Export Plug-In . SVG Version: 6.00 Build 0)  -->
<svg version="1.1" id="Слой_1" xmlns="http://www.w3.org/2000/svg" xmlns:xlink="http://www.w3.org/1999/xlink" x="0px" y="0px"
	 viewBox="0 0 297.2 275.4" style="enable-background:new 0 0 297.2 275.4;" xml:space="preserve">
<g transform="translate(0.000000,280.000000) scale(0.050000,-0.050000)">
	<path d="M2830,5556.4c-348-124-375-173-371-692c4-614-58-801-389-1172c-513-575-1210-920-1856-921c-96,0-124-8-165-49l-49-49v-1079
		c0-965,3-1080,32-1091c17-7,301-12,631-12c684,0,652,7,820-176c59-64,139-138,177-165l70-49h1530h1530l113,46
		c278,112,407,289,407,558c0,152,4,166,47,190c220,117,376,482,324,754l-21,108l82,88c150,163,217,392,177,609
		c-22,122-98,302-139,327c-12,7-1,38,29,77c194,254,176,580-43,772c-159,140-165,141-1158,141c-487,0-890,7-895,16c-6,8-1,87,11,175
		C3873,5077.4,3474,5787.4,2830,5556.4z M3196,5283.4c117-61,185-173,246-408c63-238,55-491-34-1176c-25-196-82-186,1070-192
		c905-5,998-9,1057-41c196-107,183-364-25-511c-49-35-90-77-90-94c0-26-79-30-627-30c-702,0-733-6-733-140c0-138,21-142,828-139
		l721,2l24-67c42-115,32-239-28-357l-55-109l-707-10l-707-10l-38-47c-50-62-48-120,5-177l44-46h615h614l22-63c67-191-66-557-179-496
		c-21,11-258,19-545,19c-575,0-601-6-601-140c0-130,36-140,506-140h415l35-78c49-109,27-224-62-323c-129-143-81-139-1699-139H1823
		l-167,167c-232,232-234,233-870,233H280v860v859l45,8c25,5,144,24,265,43c698,108,1436,578,1846,1175c246,358,283,497,284,1047
		c0,468-4,454,141,516C2949,5318.4,3126,5319.4,3196,5283.4z"/>
</g>
</svg>
