<?xml version="1.0" encoding="utf-8"?>
<!-- Generator: Adobe Illustrator 19.2.1, SVG Export Plug-In . SVG Version: 6.00 Build 0)  -->
<svg version="1.1" id="Magnifying_glass" xmlns="http://www.w3.org/2000/svg" xmlns:xlink="http://www.w3.org/1999/xlink" x="0px"
	 y="0px" viewBox="0 0 15.8 15.8" style="enable-background:new 0 0 15.8 15.8;" xml:space="preserve">
<path d="M15.4,13.4l-3.8-3.8c0.6-0.9,0.9-2,0.9-3.2C12.6,3,9.6,0,6.2,0C2.8,0,0,2.8,0,6.2c0,3.4,3,6.4,6.4,6.4
	c1.1,0,2.2-0.3,3.1-0.8l3.8,3.8c0.4,0.4,1,0.4,1.3,0l0.9-0.9C16,14.2,15.8,13.7,15.4,13.4z M1.9,6.2c0-2.4,1.9-4.3,4.3-4.3
	c2.4,0,4.5,2.1,4.5,4.5c0,2.4-1.9,4.3-4.3,4.3C4,10.7,1.9,8.6,1.9,6.2z"/>
</svg>
