<?xml version="1.0" encoding="utf-8"?>
<!-- Generator: Adobe Illustrator 19.2.1, SVG Export Plug-In . SVG Version: 6.00 Build 0)  -->
<svg version="1.1" id="Mail" xmlns="http://www.w3.org/2000/svg" xmlns:xlink="http://www.w3.org/1999/xlink" x="0px" y="0px"
	 viewBox="0 0 18 12" style="enable-background:new 0 0 18 12;" xml:space="preserve">
<path d="M0.6,1.3c0.5,0.3,7.2,3.9,7.5,4C8.3,5.4,8.6,5.5,9,5.5c0.3,0,0.7-0.1,0.9-0.2s7-3.8,7.5-4C17.9,1,18.3,0,17.4,0H0.5
	C-0.4,0,0.1,1,0.6,1.3z M17.6,3.5c-0.6,0.3-7.4,3.8-7.7,4S9.3,7.7,9,7.7s-0.6,0-0.9-0.2c-0.3-0.2-7.1-3.7-7.7-4C0,3.3,0,3.5,0,3.7
	S0,11,0,11c0,0.4,0.6,1,1,1h16c0.4,0,1-0.6,1-1c0,0,0-7.1,0-7.3S18,3.3,17.6,3.5z"/>
</svg>
