<?xml version="1.0" encoding="utf-8"?>
<!-- Generator: Adobe Illustrator 19.2.1, SVG Export Plug-In . SVG Version: 6.00 Build 0)  -->
<svg version="1.1" id="Map" xmlns="http://www.w3.org/2000/svg" xmlns:xlink="http://www.w3.org/1999/xlink" x="0px" y="0px"
	 viewBox="0 0 20 19" style="enable-background:new 0 0 20 19;" xml:space="preserve">
<path d="M19.4,3.1l-6-3c-0.3-0.1-0.6-0.1-0.9,0L6.9,2.9L1.3,1.1C1,0.9,0.7,1,0.4,1.2C0.2,1.4,0,1.7,0,2v13c0,0.4,0.2,0.7,0.6,0.9
	l6,3C6.7,19,6.8,19,7,19s0.3,0,0.4-0.1l5.6-2.8l5.6,1.9c0.3,0.1,0.6,0,0.9-0.1c0.3-0.2,0.4-0.5,0.4-0.8V4C20,3.6,19.8,3.3,19.4,3.1z
	 M8,4.6l4-2v11.8l-4,2V4.6z M2,3.4l4,1.3v11.7l-4-2V3.4z M18,15.6l-4-1.3V2.6l4,2V15.6z"/>
</svg>
