<?xml version="1.0" standalone="no"?>
<!DOCTYPE svg PUBLIC "-//W3C//DTD SVG 20010904//EN"
 "http://www.w3.org/TR/2001/REC-SVG-20010904/DTD/svg10.dtd">
<svg version="1.0" xmlns="http://www.w3.org/2000/svg"
 width="900.000000pt" height="855.000000pt" viewBox="0 0 900.000000 855.000000"
 preserveAspectRatio="xMidYMid meet">
<metadata>
Created by potrace 1.10, written by Peter Selinger 2001-2011
</metadata>
<g transform="translate(0.000000,855.000000) scale(0.100000,-0.100000)"
fill="#000000" stroke="none">
<path d="M820 8536 c0 -9 -16 -17 -42 -21 -88 -14 -243 -78 -315 -131 -17 -13
-36 -24 -40 -24 -29 0 -283 -273 -283 -304 0 -3 -13 -27 -28 -53 -16 -26 -31
-57 -34 -68 -4 -11 -16 -45 -27 -75 -54 -140 -51 79 -51 -3595 0 -3568 -1
-3442 40 -3571 19 -57 52 -131 94 -209 31 -56 134 -181 202 -244 43 -39 81
-71 85 -71 5 0 27 -13 51 -28 94 -63 189 -102 308 -128 98 -21 7322 -21 7420
0 119 26 214 65 308 128 24 15 46 28 51 28 27 0 281 274 281 304 0 3 13 27 28
53 16 26 31 57 34 68 4 11 18 52 32 90 14 39 26 82 26 97 0 37 10 58 26 58 12
0 14 504 14 3425 0 2921 -2 3425 -14 3425 -16 0 -26 21 -26 58 0 15 -12 59
-26 97 -14 39 -28 79 -32 90 -3 11 -18 42 -34 68 -15 26 -28 50 -28 53 0 31
-254 304 -283 304 -4 0 -23 11 -40 24 -72 53 -227 117 -314 131 -27 4 -43 12
-43 21 0 12 -516 14 -3670 14 -3154 0 -3670 -2 -3670 -14z m7320 -345 c227
-68 407 -234 472 -436 9 -28 22 -68 30 -90 17 -54 25 -6657 7 -6745 -27 -135
-38 -166 -92 -262 -87 -155 -235 -268 -412 -315 -67 -17 -204 -18 -3655 -18
-3451 0 -3588 1 -3655 18 -177 47 -325 160 -412 315 -54 95 -64 125 -92 261
-16 76 -16 6616 0 6692 28 136 38 166 92 261 68 121 164 208 304 277 32 16 74
31 93 35 19 3 53 10 75 15 23 5 1581 8 3620 7 2961 -1 3588 -4 3625 -15z"/>
<path d="M2694 5757 c-2 -7 -3 -82 -2 -167 l3 -155 1819 -3 c1449 -2 1821 0
1828 10 9 15 11 289 2 312 -6 15 -176 16 -1825 16 -1478 0 -1821 -2 -1825 -13z"/>
<path d="M2694 4397 c-2 -7 -3 -82 -2 -167 l3 -155 1090 0 1090 0 3 159 c2
121 -1 161 -10 168 -7 4 -498 8 -1091 8 -872 0 -1079 -2 -1083 -13z"/>
<path d="M2697 3043 c-9 -8 -9 -306 -1 -327 6 -15 175 -16 1814 -16 1631 0
1810 2 1824 16 13 13 16 42 16 163 0 101 -4 151 -12 159 -9 9 -428 12 -1823
12 -997 0 -1815 -3 -1818 -7z"/>
</g>
</svg>
