<?xml version="1.0" encoding="utf-8"?>
<!-- Generator: Adobe Illustrator 19.2.1, SVG Export Plug-In . SVG Version: 6.00 Build 0)  -->
<svg version="1.1" id="Слой_1" xmlns="http://www.w3.org/2000/svg" xmlns:xlink="http://www.w3.org/1999/xlink" x="0px" y="0px"
	 viewBox="0 0 874.9 710.4" style="enable-background:new 0 0 874.9 710.4;" xml:space="preserve">
<g transform="translate(0.000000,732.000000) scale(0.100000,-0.100000)">
	<path d="M3433.6,7318.4c-108-20-136-28-177-51c-107-61-175-144-213-260c-17-53-17-167,0-247c6-29-32-68-994-1028
		c-551-549-999-1002-996-1007s24-3,48,5c40,12,109,31,222,61c122,32,173,46,221,59c28,8,59,15,69,15c12,0,336,317,835,815
		c449,448,822,815,829,815s41-7,75-16c153-40,291-1,409,117l70,70l46-14c43-14,100-29,231-64c72-19,148-40,213-57c28-8,81-22,117-31
		c36-10,85-23,110-30c42-12,110-30,225-60c107-28,182-48,225-60c25-8,74-21,110-30s88-23,115-31c28-7,75-20,105-28
		c136-35,188-49,230-61c25-7,74-20,110-29c145-38,266-71,331-92c58-18,93-18,150,0c84,25,177,51,334,92c155,40,199,58,163,68
		c-7,2-42,11-78,21c-36,9-89,23-117,31c-29,8-77,20-105,28c-29,8-82,22-118,31c-36,10-85,23-110,30s-74,20-110,30
		c-83,21-150,39-220,58c-30,9-84,23-120,33c-36,9-90,23-120,31s-75,20-100,28c-43,12-97,26-235,62c-33,8-80,21-105,28s-74,20-110,30
		c-36,9-89,23-117,31c-97,26-168,45-218,59c-27,8-59,16-70,18c-11,3-56,15-100,27s-105,29-135,37s-71,19-90,23c-31,7-73,18-245,66
		c-27,8-71,19-98,25c-39,9-48,15-54,37c-23,92-110,202-203,256C3604.6,7296.4,3481.6,7327.4,3433.6,7318.4z"/>
	<path d="M7308.6,6245.4c-46-9-94-21-235-60c-44-12-89-24-100-27c-11-2-42-10-70-18c-170-47-240-66-335-90c-36-9-90-23-120-32
		c-69-19-137-37-220-59c-36-9-85-22-110-29s-74-20-110-30c-36-9-87-23-115-30c-27-8-77-21-110-30c-33-8-82-22-110-29
		c-27-8-79-22-115-31s-85-22-110-30c-25-7-72-20-105-28c-110-28-189-49-235-62c-47-13-136-37-230-62c-72-19-148-40-212-57
		c-29-8-82-22-118-31c-36-10-85-23-110-30s-74-20-110-29c-36-10-87-23-115-31c-27-7-79-21-115-30c-36-10-85-23-110-30s-74-20-110-30
		c-36-9-89-23-117-31c-95-26-157-43-223-60c-36-9-85-22-110-29s-74-20-110-30c-36-9-87-23-115-30c-27-8-79-21-115-31
		c-36-9-85-22-110-29s-74-20-110-30c-36-9-89-23-117-31c-95-26-157-43-223-60c-36-9-85-22-110-29s-74-20-110-30c-36-9-87-23-115-30
		c-27-8-79-21-115-31c-36-9-85-22-110-29c-25-8-74-21-110-30s-85-22-110-30c-25-7-73-20-107-29c-155-40-191-49-233-61
		c-86-24-183-50-340-90c-36-10-85-23-110-30c-25-8-74-21-110-31c-75-19-154-40-225-59c-27-8-79-21-115-31c-191-49-233-64-288-101
		c-74-49-162-145-162-176c0-9-4-18-9-21c-4-3-18-37-31-74c-31-97-23-215,22-347c5-16,14-52,19-79c4-27,13-54,19-60c5-5,10-21,10-34
		s7-46,15-73s22-71,30-98s15-59,15-72c1-13,7-35,15-49s14-37,15-51c0-14,6-45,14-70c7-24,21-73,31-109c19-73,41-153,60-220
		c12-43,27-100,62-235c8-33,21-80,28-105s20-74,30-110c19-75,37-140,60-225c21-73,39-140,61-225c9-36,22-85,29-110
		c13-47,37-136,62-230c21-79,39-147,57-210c8-30,22-84,32-120c9-36,22-85,29-110s20-74,30-110c9-36,23-90,32-120c8-30,21-79,29-107
		c64-241,75-274,112-330c71-111,162-177,290-214c117-33,129-31,557,86c72,20,138,38,225,60c36,10,85,23,110,30c42,12,110,30,225,60
		c28,7,79,21,115,30c36,10,90,24,120,32s80,22,110,30s79,21,108,29c28,8,76,20,105,28c28,8,81,22,117,31c36,10,85,23,110,30
		c42,12,78,21,233,61c34,9,82,22,107,29c25,8,74,21,110,31c36,9,85,22,110,29s74,20,110,29c36,10,88,23,115,31c28,7,79,21,115,30
		c36,10,85,23,110,30s74,20,110,30c83,21,150,39,220,58c30,9,84,23,120,33c99,25,169,44,227,60c118,32,161,44,223,60
		c36,9,85,22,110,29s74,20,110,30c36,9,89,23,117,31c92,25,156,42,223,60c80,20,158,41,227,60c118,32,161,44,223,60
		c36,9,85,22,110,29s74,20,110,30c36,9,88,23,115,30c28,8,77,21,110,30c33,8,83,22,110,29c28,8,79,22,115,31s85,22,110,30
		c25,7,74,20,110,30c157,40,254,66,340,90c25,7,74,20,110,29c83,22,151,40,220,59c30,9,84,23,120,32c36,10,85,23,110,30
		c44,12,118,32,235,62c33,8,80,21,105,28s74,20,110,30c190,51,249,81,333,169c74,78,126,206,127,316c0,45-18,147-38,211
		c-6,19-18,63-28,99c-9,36-22,85-29,110c-12,44-32,118-62,235c-8,33-22,83-29,110c-8,28-21,73-28,100c-8,28-22,79-31,115
		c-10,36-23,85-30,110c-12,42-21,78-61,233c-9,34-22,82-29,107c-19,66-41,146-60,220c-10,36-23,85-30,110s-20,72-28,105
		c-30,117-50,191-62,235c-15,52-41,151-62,230c-8,30-20,75-28,100c-7,25-20,73-29,108c-40,154-49,190-61,232c-7,25-20,74-30,110
		c-19,74-41,154-60,220c-7,25-20,73-29,108c-9,34-23,90-33,125c-40,151-135,269-265,330c-65,31-90,37-165,41
		C7393.6,6251.4,7333.6,6250.4,7308.6,6245.4z M7483.6,5911.4c46-27,65-61,90-156c10-36,23-85,30-110s20-74,29-110
		c10-36,23-85,31-110c12-43,28-103,62-235c8-33,21-80,28-105c13-44,24-83,59-220c10-36,23-85,31-110c7-25,20-74,30-110
		c40-157,66-254,90-340c7-25,20-74,30-110c16-64,29-113,59-220c8-30,22-84,32-120c9-36,22-85,29-110s20-74,30-110c9-36,23-90,32-120
		c22-80,59-219,88-330c10-36,23-85,30-110s20-74,30-110c9-36,23-89,31-117c8-29,21-79,30-110c8-32,22-79,30-104c18-61,17-117-4-156
		c-31-57-63-73-232-118c-36-9-90-23-120-32c-64-17-129-35-220-59c-111-29-173-45-230-61c-74-20-142-38-220-59c-36-9-85-22-110-29
		s-74-20-110-30c-36-9-89-23-117-31c-118-32-238-64-333-88c-36-10-85-23-110-31c-25-7-74-20-110-30c-157-40-254-66-340-90
		c-25-7-74-20-110-29c-66-17-128-34-223-60c-28-8-81-22-117-31c-36-10-85-23-110-30s-74-20-110-29c-36-10-87-23-115-31
		c-61-16-139-37-225-59c-36-10-89-24-117-32c-29-8-78-21-108-29s-79-21-107-29c-29-8-82-22-118-31c-36-10-85-23-110-30
		s-74-20-110-30c-154-40-178-46-225-59c-27-7-79-21-115-30c-36-10-90-24-120-33c-30-8-79-21-107-29c-29-8-77-20-105-28
		c-29-8-82-22-118-31c-36-10-85-23-110-30s-74-20-110-30c-154-40-178-46-225-59c-27-7-79-21-115-30c-36-10-90-24-120-33
		c-91-25-152-42-210-57c-136-35-188-49-230-61c-25-7-74-20-110-30c-36-9-90-23-120-32c-70-19-137-37-220-58c-36-10-85-23-110-30
		c-57-16-127-35-335-89c-115-31-183-49-224-62c-63-20-161-18-191,3c-55,38-65,62-135,333c-10,36-23,85-30,110c-12,42-21,78-61,233
		c-9,34-22,82-29,107c-19,66-41,146-60,220c-10,36-23,85-30,110s-20,74-29,110c-44,168-67,255-91,340c-7,25-20,74-29,110
		c-10,36-23,85-31,110c-12,41-23,85-60,225c-28,107-48,182-60,225c-8,25-21,74-30,110s-22,85-30,110c-7,25-20,73-29,108
		c-9,34-23,90-32,125c-9,34-22,82-29,107c-8,25-20,70-28,100s-22,84-31,120c-29,110-47,173-64,225c-9,28-16,83-17,124v73l44,39
		c24,22,56,42,70,45s51,12,81,21c53,15,96,26,210,56c74,19,175,47,230,62c25,7,72,20,105,28c140,36,193,50,235,62c25,8,74,21,110,30
		s85,22,110,30c25,7,74,20,110,30c157,40,254,66,340,90c42,12,78,21,233,61c34,9,82,22,107,29c25,8,70,20,100,28s84,22,120,31
		c36,10,89,24,118,32c28,8,76,20,105,28c28,8,81,22,117,31c36,10,85,23,110,30s74,20,110,29c62,16,105,28,223,60
		c58,16,128,35,227,60c36,10,89,24,117,32c95,26,157,43,223,60c36,9,85,22,110,29c42,12,94,26,230,61c30,8,78,21,105,28
		c28,8,79,22,115,31s89,23,117,31c168,46,257,70,333,90c36,9,85,22,110,29c42,12,94,26,230,61c30,8,78,21,105,28c28,8,79,22,115,31
		c36,10,85,23,110,30c48,13,143,39,225,60c115,30,183,48,225,60c25,7,74,20,110,30c36,9,89,23,118,31c28,8,76,20,105,28
		c28,8,81,22,117,31c36,10,85,23,110,30c48,13,143,39,225,60c115,30,183,48,225,60c25,7,74,20,110,30c88,23,170,45,200,55
		C7379.6,5941.4,7440.6,5936.4,7483.6,5911.4z"/>
	<path d="M6753.6,4775.4c-16-4-66-17-110-30c-44-12-105-29-135-37s-71-19-90-22c-19-4-51-12-70-18c-42-13-121-35-210-58
		c-36-10-85-23-110-30c-43-12-109-29-230-61c-135-35-135-35-134-78c1-36,25-132,45-183c10-27,32-29,108-7c31,9,79,22,106,29
		c28,7,75,20,105,28c30,9,84,23,120,33c180,47,254,67,329,90c51,16,78,18,85,5c3-5-1-42-9-82c-8-41-21-121-30-179s-23-143-30-190
		c-8-47-22-130-30-185c-25-155-45-282-61-380c-8-49-21-130-29-180c-7-49-21-131-29-181c-18-103-20-140-7-148c8-5,101,18,201,50
		c25,8,52,14,61,14s22,6,28,14c14,17,25,80,106,616c27,183,45,293,60,376c8,45,15,94,15,109c0,14,7,65,15,113c9,48,22,128,30,177
		c8,50,18,117,24,151c10,63,4,103-29,199C6829.6,4784.4,6814.6,4791.4,6753.6,4775.4z"/>
	<path d="M5268.6,4430.4c-19-7-44-14-56-14c-50-2-54-14-69-221c-8-107-22-312-30-455s-22-357-30-475c-9-118-15-237-15-265
		c0-27-7-143-17-258c-12-150-14-210-6-218c12-12,89,1,147,25c39,16,42,30,51,206c3,63,12,219,20,345c8,127,22,347,30,490
		c9,143,22,352,30,465c13,172,19,323,16,378C5338.6,4448.4,5313.6,4447.4,5268.6,4430.4z"/>
	<path d="M3948.6,4024.4c-36-10-113-30-172-45c-59-14-114-34-122-43c-14-16-39-87-131-376c-26-82-53-166-60-185
		c-28-79-37-106-45-135c-5-16-13-43-19-60c-6-16-32-95-57-175s-54-163-63-185c-20-49-20-144,1-210c9-27,19-62,22-77
		c7-32,24-35,90-17c22,6,68,18,101,26c59,15,127,34,215,58c25,7,74,20,110,30c79,20,151,40,206,55c52,15,78,10,82-15
		c1-11,10-45,18-75c9-30,23-80,31-110c35-130,37-135,63-138c23-4,79,10,200,48l55,17l-4,38c-1,22-7,50-13,65c-5,14-13,43-18,65
		s-18,73-30,114c-23,82-19,96,33,104c74,12,139,34,148,49c5,10,3,36-7,69c-8,30-19,74-25,99c-14,67-26,75-91,60c-29-7-70-19-91-26
		c-21-8-42-12-47-9c-10,6-32,67-55,155c-10,36-23,85-30,110s-20,73-29,108c-44,169-58,222-91,342c-7,25-20,74-29,110
		c-31,116-53,175-67,177C4019.6,4042.4,3984.6,4035.4,3948.6,4024.4z M3848.6,3620.4c18-61,41-145,67-245c15-55,29-107,59-217
		c9-32,23-79,31-105c19-61,14-102-12-106c-11-1-44-9-72-17c-73-21-146-41-223-60c-36-9-82-23-104-31c-58-20-69-5-42,58
		c8,18,23,62,35,98c22,70,37,115,56,170c7,19,22,64,34,100c22,71,37,117,56,170c7,19,28,83,47,142c18,59,37,106,42,105
		C3827.6,3680.4,3838.6,3652.4,3848.6,3620.4z"/>
	<path d="M2218.6,3585.4c-222-54-361-136-492-290c-26-30-48-60-48-66s-7-17-15-24s-15-24-15-39c0-22,14-36,96-89c52-34,98-62,102-62
		s18,17,32,38c89,134,194,213,351,262c158,49,303,2,364-118c22-45,30-153,16-227c-29-154-246-497-574-904c-53-66-58-77-54-110
		c7-47,26-118,44-160c13-32,15-33,56-27c23,4,62,13,87,20c25,8,74,21,110,31c64,16,113,29,220,59c30,8,84,22,120,32
		c36,9,85,22,110,29s74,20,110,30c36,9,88,23,115,30c28,8,79,21,115,31c157,40,156,39,135,115c-8,30-20,75-26,101
		c-18,78-27,80-174,38c-44-12-96-26-115-31c-45-10-124-31-225-59c-219-60-221-61-204-27c7,12,35,52,63,89c65,86,140,189,146,202
		c3,6,21,36,41,66c46,70,126,220,145,274c53,146,58,170,58,291c1,126-2,138-58,254C2757.6,3544.4,2481.6,3649.4,2218.6,3585.4z"/>
</g>
</svg>
