<?xml version="1.0" encoding="utf-8"?>
<!-- Generator: Adobe Illustrator 19.2.1, SVG Export Plug-In . SVG Version: 6.00 Build 0)  -->
<svg version="1.1" id="Pinterest" xmlns="http://www.w3.org/2000/svg" xmlns:xlink="http://www.w3.org/1999/xlink" x="0px" y="0px"
	 viewBox="0 0 15.6 20" style="enable-background:new 0 0 15.6 20;" xml:space="preserve">
<path d="M6.4,13.2C5.9,16,5.2,18.6,3.3,20c-0.6-4.2,0.9-7.3,1.5-10.6C3.7,7.5,5,3.6,7.4,4.5c3,1.2-2.6,7.2,1.1,7.9
	c3.9,0.8,5.5-6.8,3.1-9.2c-3.5-3.5-10.1-0.1-9.3,5c0.2,1.2,1.5,1.6,0.5,3.3C0.6,11.1-0.1,9.3,0,7c0.1-3.8,3.4-6.5,6.8-6.9
	c4.2-0.5,8.1,1.5,8.7,5.5c0.6,4.5-1.9,9.3-6.4,8.9C7.9,14.4,7.4,13.8,6.4,13.2z"/>
</svg>
