<?xml version="1.0" encoding="utf-8"?>
<!-- Generator: Adobe Illustrator 19.2.1, SVG Export Plug-In . SVG Version: 6.00 Build 0)  -->
<svg version="1.1" id="Слой_1" xmlns="http://www.w3.org/2000/svg" xmlns:xlink="http://www.w3.org/1999/xlink" x="0px" y="0px"
	 viewBox="0 0 882.3 884.8" style="enable-background:new 0 0 882.3 884.8;" xml:space="preserve">
<g transform="translate(0.000000,921.000000) scale(0.100000,-0.100000)">
	<path d="M4789,9193.8c-99-20-183-43-230-60c-63-25-166-77-177-90c-6-7-14-13-19-13c-4,0-36-19-71-43c-473-323-525-351-659-350
		c-44,1-101,8-127,17s-81,27-122,42c-269,92-673,109-960,41c-62-15-87-22-175-54c-59-22-223-103-275-137c-174-114-337-281-465-476
		c-68-104-148-267-200-410c-65-180-135-509-135-637c0-52-4-66-26-92c-14-17-30-31-35-31c-14,0-279-188-394-280
		c-162-128-344-313-441-445c-137-189-200-323-260-555c-24-93-24-396,0-500c51-226,113-368,253-574c197-291,233-345,262-397
		c61-108,61-109,45-200c-8-45-19-100-25-123c-12-46-34-134-54-216c-7-30-20-82-29-115c-75-295-58-622,46-900c53-141,92-211,191-343
		c153-204,378-374,668-506c216-98,570-187,868-218c19-2,43-31,105-123c201-298,385-517,570-679c89-78,202-161,264-193
		c176-93,269-127,436-158c69-13,122-16,245-12c324,12,517,79,816,286c251,175,335,229,419,270l81,41l70-16c82-18,147-34,363-88
		c148-38,248-55,422-71c83-8,324,17,435,45c76,19,186,60,275,102c191,91,415,284,536,461c175,257,288,530,358,867
		c16,78,44,263,49,315c2,32-7,24,342,280c75,55,146,109,158,120s45,38,72,60c88,69,229,217,306,320c121,163,200,337,243,540
		c15,67,17,117,13,305c-3,157-9,243-20,285c-50,195-136,368-322,650c-78,117-157,252-189,319c-23,48-27,68-22,100
		c15,93,34,182,79,361c85,341,102,505,72,714c-31,218-84,381-178,546c-118,207-315,406-542,545c-77,48-293,155-340,169
		c-16,5-61,21-100,34c-143,49-430,117-497,117c-15,0-61,5-102,11l-74,11l-49,69c-74,106-233,320-267,360c-17,20-53,62-81,94
		c-135,157-366,357-505,438c-144,83-271,131-439,167C5130,9214.8,4898,9216.8,4789,9193.8z M5198,8770.8c230-55,457-204,654-431
		c41-46,84-95,96-109c34-38,195-254,257-345c62-90,124-157,172-182c59-31,131-53,176-53c185,0,670-132,811-221c8-5,25-13,37-19
		c73-31,242-161,323-246c83-89,183-237,203-301c3-10,15-43,27-73c73-190,78-437,15-690c-7-30-21-86-30-125c-9-38-22-95-30-125
		c-55-225-70-332-55-406c18-92,116-282,249-484c30-47,60-93,66-102c5-10,33-55,61-100c73-119,129-240,154-338c19-71,22-112,22-245
		c0-89-5-180-12-205c-6-25-14-56-16-70c-11-52-70-178-120-256s-174-213-279-304c-47-41-247-191-461-345c-198-143-222-189-253-475
		c-5-47-14-98-20-113c-6-16-11-40-11-54c0-15-7-51-16-82c-8-31-22-81-31-111c-14-52-21-70-59-172c-29-78-108-232-156-303
		c-82-122-174-219-285-298c-54-39-223-127-243-127c-7,0-33-7-59-15c-140-44-352-58-484-30c-129,27-220,48-317,73
		c-276,70-419,91-501,72c-98-23-278-121-474-258c-50-35-126-88-170-119c-94-66-211-130-275-149c-96-30-244-54-337-54
		c-319,0-614,178-920,556c-81,99-130,169-260,362c-77,116-132,172-193,199c-49,21-134,40-210,48c-228,21-544,105-717,189
		c-29,14-55,26-58,26c-2,0-39,21-82,47c-152,91-255,181-346,299c-50,66-125,201-138,249c-59,210-60,223-57,395c3,128,9,186,27,260
		c13,52,26,111,31,130c4,19,19,80,33,135c56,219,61,250,61,360v110l-49,100c-56,113-63,124-194,320c-52,77-120,178-151,225
		c-78,116-134,238-160,345c-27,113-31,353-7,425c8,25,18,59,22,75c10,48,85,194,136,268c97,141,322,361,468,460c14,9,51,35,81,58
		c30,22,107,76,171,119c125,84,202,161,226,225c8,22,24,108,34,190c34,260,60,374,134,585c81,229,257,472,442,611
		c296,223,716,277,1133,144c233-74,254-78,386-73c88,4,136,11,184,27c68,24,204,88,255,121c17,11,37,23,45,27s47,29,85,55
		c286,199,333,229,413,268C4788,8787.8,5033,8809.8,5198,8770.8z"/>
	<path d="M3254,6954.8c-14-2-56-9-95-15c-274-42-531-226-657-470c-77-150-99-244-99-424s22-275,99-424c54-105,151-218,252-294
		c72-54,82-60,165-100c242-115,533-115,770,0c253,122,430,344,499,625c23,96,22,302-3,399c-81,315-305,558-606,657
		C3483,6940.8,3315,6964.8,3254,6954.8z M3396,6541.8c89-15,197-72,274-146c18-18,79-109,93-140c88-198,40-431-119-579
		c-113-104-255-148-411-128c-88,11-126,25-199,71c-180,114-278,350-225,542C2885,6433.8,3121,6586.8,3396,6541.8z"/>
	<path d="M6069,6573.8c-47-14-146-112-1720-1690c-918-921-1678-1689-1687-1706c-25-46-23-123,5-171c47-83,132-120,234-102
		c34,7,199,169,1716,1684c1227,1227,1683,1688,1698,1719c49,106-6,229-118,267C6141,6593.8,6133,6593.8,6069,6573.8z"/>
	<path d="M5496,4265.8c-168-46-328-146-444-277c-105-119-147-198-202-383c-35-116-29-330,13-478c54-193,202-388,378-500
		c159-101,290-138,488-138c210,0,320,32,500,147c247,158,405,451,405,753c0,307-156,593-415,762c-82,53-170,91-275,119
		C5833,4299.8,5610,4297.8,5496,4265.8z M5840,3882.8c128-34,206-84,282-180c51-64,83-130,98-202c27-128,15-218-44-339
		c-103-208-345-321-562-263c-97,26-167,65-236,132c-208,202-205,524,7,724c71,67,129,99,229,127
		C5698,3904.8,5754,3904.8,5840,3882.8z"/>
</g>
</svg>
