<?xml version="1.0" encoding="utf-8"?>
<!-- Generator: Adobe Illustrator 19.2.1, SVG Export Plug-In . SVG Version: 6.00 Build 0)  -->
<svg version="1.1" id="Shopping_cart" xmlns="http://www.w3.org/2000/svg" xmlns:xlink="http://www.w3.org/1999/xlink" x="0px"
	 y="0px" viewBox="0 0 18 18" style="enable-background:new 0 0 18 18;" xml:space="preserve">
<path d="M13,16c0,1.1,0.9,2,2,2c1.1,0,2-0.9,2-2c0-1.1-0.9-2-2-2C13.9,14,13,14.9,13,16z M3,16c0,1.1,0.9,2,2,2c1.1,0,2-0.9,2-2
	c0-1.1-0.9-2-2-2C3.9,14,3,14.9,3,16z M6.5,11.2L17.6,8C17.8,7.9,18,7.7,18,7.5V2H4V0.4C4,0.2,3.8,0,3.6,0H0.4C0.2,0,0,0.2,0,0.4V2
	h2l1.9,9L4,11.9v1.6c0,0.2,0.2,0.4,0.4,0.4h13.2c0.2,0,0.4-0.2,0.4-0.4V12H6.8C5.6,12,5.6,11.4,6.5,11.2z"/>
</svg>
