<?xml version="1.0" standalone="no"?>
<!DOCTYPE svg PUBLIC "-//W3C//DTD SVG 20010904//EN"
 "http://www.w3.org/TR/2001/REC-SVG-20010904/DTD/svg10.dtd">
<svg version="1.0" xmlns="http://www.w3.org/2000/svg"
 width="300.000000pt" height="120.000000pt" viewBox="0 0 300.000000 120.000000"
 preserveAspectRatio="xMidYMid meet">
<metadata>
Created by potrace 1.10, written by Peter Selinger 2001-2011
</metadata>
<g transform="translate(0.000000,120.000000) scale(0.100000,-0.100000)"
fill="#000000" stroke="none">
<path d="M40 1182 l-35 -17 0 -85 0 -85 35 -17 c33 -17 123 -18 1460 -18 1337
0 1427 1 1460 18 l35 17 0 85 0 85 -35 17 c-33 17 -123 18 -1460 18 -1337 0
-1427 -1 -1460 -18z"/>
<path d="M40 702 l-35 -17 0 -85 0 -85 35 -17 c33 -17 123 -18 1460 -18 1337
0 1427 1 1460 18 l35 17 0 85 0 85 -35 17 c-33 17 -123 18 -1460 18 -1337 0
-1427 -1 -1460 -18z"/>
<path d="M40 222 l-35 -17 0 -85 0 -85 35 -17 c33 -17 123 -18 1460 -18 1337
0 1427 1 1460 18 l35 17 0 85 0 85 -35 17 c-33 17 -123 18 -1460 18 -1337 0
-1427 -1 -1460 -18z"/>
</g>
</svg>
