<?xml version="1.0" standalone="no"?>
<!DOCTYPE svg PUBLIC "-//W3C//DTD SVG 20010904//EN"
 "http://www.w3.org/TR/2001/REC-SVG-20010904/DTD/svg10.dtd">
<svg version="1.0" xmlns="http://www.w3.org/2000/svg"
 width="300.000000pt" height="120.000000pt" viewBox="0 0 300.000000 120.000000"
 preserveAspectRatio="xMidYMid meet">
<metadata>
Created by potrace 1.10, written by Peter Selinger 2001-2011
</metadata>
<g transform="translate(0.000000,120.000000) scale(0.050000,-0.050000)"
fill="#000000" stroke="none">
<path d="M0 2160 l0 -240 480 0 480 0 0 240 0 240 -480 0 -480 0 0 -240z"/>
<path d="M1680 2160 l0 -240 2160 0 2160 0 0 240 0 240 -2160 0 -2160 0 0
-240z"/>
<path d="M0 1200 l0 -240 480 0 480 0 0 240 0 240 -480 0 -480 0 0 -240z"/>
<path d="M1680 1200 l0 -240 2160 0 2160 0 0 240 0 240 -2160 0 -2160 0 0
-240z"/>
<path d="M0 240 l0 -240 480 0 480 0 0 240 0 240 -480 0 -480 0 0 -240z"/>
<path d="M1680 240 l0 -240 2160 0 2160 0 0 240 0 240 -2160 0 -2160 0 0 -240z"/>
</g>
</svg>
