<?xml version="1.0" standalone="no"?>
<!DOCTYPE svg PUBLIC "-//W3C//DTD SVG 20010904//EN"
 "http://www.w3.org/TR/2001/REC-SVG-20010904/DTD/svg10.dtd">
<svg version="1.0" xmlns="http://www.w3.org/2000/svg"
 width="300.000000pt" height="180.000000pt" viewBox="0 0 300.000000 180.000000"
 preserveAspectRatio="xMidYMid meet">
<metadata>
Created by potrace 1.10, written by Peter Selinger 2001-2011
</metadata>
<g transform="translate(0.000000,180.000000) scale(0.050000,-0.050000)"
fill="#000000" stroke="none">
<path d="M0 3000 l0 -600 600 0 600 0 0 600 0 600 -600 0 -600 0 0 -600z"/>
<path d="M2400 3000 l0 -600 600 0 600 0 0 600 0 600 -600 0 -600 0 0 -600z"/>
<path d="M4800 3000 l0 -600 600 0 600 0 0 600 0 600 -600 0 -600 0 0 -600z"/>
<path d="M0 600 l0 -600 600 0 600 0 0 600 0 600 -600 0 -600 0 0 -600z"/>
<path d="M2400 600 l0 -600 600 0 600 0 0 600 0 600 -600 0 -600 0 0 -600z"/>
<path d="M4800 600 l0 -600 600 0 600 0 0 600 0 600 -600 0 -600 0 0 -600z"/>
</g>
</svg>
