<?xml version="1.0" encoding="utf-8"?>
<!-- Generator: Adobe Illustrator 19.2.1, SVG Export Plug-In . SVG Version: 6.00 Build 0)  -->
<svg version="1.1" id="Twitter" xmlns="http://www.w3.org/2000/svg" xmlns:xlink="http://www.w3.org/1999/xlink" x="0px" y="0px"
	 viewBox="0 0 18.4 15" style="enable-background:new 0 0 18.4 15;" xml:space="preserve">
<path d="M16.5,3.7c0,0.2,0,0.3,0,0.5c0,5-3.8,10.7-10.7,10.7c-2.1,0-4.1-0.6-5.8-1.7c0.3,0,0.6,0.1,0.9,0.1c1.8,0,3.4-0.6,4.7-1.6
	c-1.7,0-3-1.1-3.5-2.6c0.2,0,0.5,0.1,0.7,0.1c0.3,0,0.7,0,1-0.1c-1.7-0.3-3-1.9-3-3.7c0,0,0,0,0,0c0.5,0.3,1.1,0.5,1.7,0.5
	c-1-0.7-1.7-1.8-1.7-3.1c0-0.7,0.2-1.3,0.5-1.9C3.1,3,5.9,4.5,9.1,4.6C9,4.4,9,4.1,9,3.8C9,1.7,10.7,0,12.7,0c1.1,0,2.1,0.5,2.8,1.2
	c0.9-0.2,1.7-0.5,2.4-0.9c-0.3,0.9-0.9,1.6-1.7,2.1c0.8-0.1,1.5-0.3,2.2-0.6C17.9,2.5,17.3,3.2,16.5,3.7z"/>
</svg>
