<?xml version="1.0" encoding="utf-8"?>
<!-- Generator: Adobe Illustrator 19.2.1, SVG Export Plug-In . SVG Version: 6.00 Build 0)  -->
<svg version="1.1" id="User" xmlns="http://www.w3.org/2000/svg" xmlns:xlink="http://www.w3.org/1999/xlink" x="0px" y="0px"
	 viewBox="0 0 18 20" style="enable-background:new 0 0 18 20;" xml:space="preserve">
<path d="M6.7,2.1c-1,0.8-1.3,2-1.2,2.6c0.1,0.8,0.2,1.8,0.2,1.8S5.4,6.7,5.4,7.4c0.1,1.7,0.7,1,0.8,1.7c0.3,1.8,0.9,1.5,0.9,2.5
	c0,1.6-0.7,2.4-2.8,3.3C2.2,15.8,0,17,0,19v1h18v-1c0-2-2.2-3.2-4.3-4.1c-2.1-0.9-2.8-1.7-2.8-3.3c0-1,0.6-0.7,0.9-2.5
	c0.1-0.8,0.7,0,0.8-1.7c0-0.7-0.3-0.9-0.3-0.9s0.2-1,0.2-1.8c0.1-0.8-0.4-2.6-2.3-3.1c-0.3-0.3-0.6-0.9,0.5-1.4
	C8.4,0.1,7.9,1.3,6.7,2.1z"/>
</svg>
