<?xml version="1.0" encoding="utf-8"?>
<!-- Generator: Adobe Illustrator 19.2.1, SVG Export Plug-In . SVG Version: 6.00 Build 0)  -->
<svg version="1.1" id="Слой_1" xmlns="http://www.w3.org/2000/svg" xmlns:xlink="http://www.w3.org/1999/xlink" x="0px" y="0px"
	 viewBox="0 0 300 169.7" style="enable-background:new 0 0 300 169.7;" xml:space="preserve">
<g transform="translate(0.000000,180.000000) scale(0.050000,-0.050000)">
	<path d="M1684,3564.2l-44-31v-815c0-607,6-821,24-839c38-38,1763-34,1794,4c17,20,24,257,24,834l2,807l-44,35
		C3377,3610.2,1757,3615.2,1684,3564.2z M3280,2715.2v-660h-710h-710v660v660h710h710V2715.2z"/>
	<path d="M3710,2605.2v-870H1886H62l-31-44c-26-37-31-116-31-450c0-520-25-486,360-486h280v-55c2-466,708-661,1043-288
		c80,88,105,140,148,298l12,45h1208h1209v-55c3-347,517-613,851-440c161,83,329,289,329,403c0,86,16,92,252,92c338,0,312-63,304,736
		l-6,654l-227,580c-125,319-240,604-255,634c-61,119-40,116-957,116h-841V2605.2z M5545,2678.2l235-597v-553v-553h-168h-167l-53,109
		c-218,445-898,435-1084-16l-38-93h-175h-175v1150v1150h695l695-1L5545,2678.2z M3720,1245.2v-270h-948h-947l-53,109
		c-221,450-898,436-1087-23l-35-86H435H220v270v270h1750h1750V1245.2z M1411,1154.2c243-117,281-468,70-645c-304-256-763,76-610,442
		C962,1167.2,1199,1257.2,1411,1154.2z M5063,1137.2c257-162,233-536-43-677c-388-198-745,302-444,622
		C4697,1211.2,4909,1235.2,5063,1137.2z"/>
	<path d="M4140,2600.2v-435h671c662,0,672,1,662,40c-5,22-71,218-146,435l-137,395h-525h-525V2600.2z M5119,2619.2
		c44-113,81-212,81-220s-187-12-415-10l-415,5l-6,194c-3,107-2,204,3,216c5,14,122,21,339,21h331L5119,2619.2z"/>
	<path d="M251,2784.2c-40-41-47-865-7-905c34-34,1218-34,1252,0s34,878,0,912C1455,2832.2,292,2825.2,251,2784.2z M1316,2326.2
		l5-271H881H440v275v275l435-4l435-5L1316,2326.2z"/>
</g>
</svg>
