<?xml version="1.0" encoding="utf-8"?>
<!-- Generator: Adobe Illustrator 19.2.1, SVG Export Plug-In . SVG Version: 6.00 Build 0)  -->
<svg version="1.1" id="VK" xmlns="http://www.w3.org/2000/svg" xmlns:xlink="http://www.w3.org/1999/xlink" x="0px" y="0px"
	 viewBox="0 0 20 11.4" style="enable-background:new 0 0 20 11.4;" xml:space="preserve">
<path d="M17.8,8c0,0,1.6,1.6,2,2.3c0,0,0,0,0,0C20,10.7,20,10.9,20,11c-0.1,0.3-0.6,0.4-0.7,0.4c0,0-2.8,0-2.9,0
	c-0.2,0-0.6-0.1-1.1-0.4c-0.4-0.3-0.8-0.7-1.1-1.1c-0.6-0.6-1-1.2-1.5-1.2c-0.1,0-0.1,0-0.2,0c-0.4,0.1-0.8,0.6-0.8,2
	c0,0.4-0.3,0.7-0.6,0.7c0,0-1.2,0-1.3,0c-0.4,0-2.8-0.2-4.8-2.3c-2.5-2.7-4.8-8-4.8-8c-0.1-0.3,0.2-0.5,0.5-0.5h2.9
	C3.8,0.5,3.9,0.8,4,1c0.1,0.2,0.5,1.2,1.1,2.3c1,1.8,1.6,2.5,2.1,2.5c0.1,0,0.2,0,0.3-0.1C8.1,5.3,8,3,8,2.6c0-0.1,0-1-0.3-1.5
	C7.4,0.7,7,0.6,6.8,0.6C6.8,0.5,7,0.3,7.1,0.3C7.6,0,8.4,0,9.2,0h0.4c0.9,0,1.1,0.1,1.4,0.1c0.6,0.2,0.6,0.6,0.6,1.9
	c0,0.4,0,0.8,0,1.4c0,0.1,0,0.2,0,0.4c0,0.7,0,1.5,0.5,1.8c0.1,0,0.1,0.1,0.2,0.1c0.2,0,0.7,0,2.1-2.4c0.6-1.1,1.1-2.3,1.1-2.4
	c0-0.1,0.1-0.2,0.2-0.3c0.1,0,0.2-0.1,0.2-0.1h3.4c0.4,0,0.6,0.1,0.7,0.2c0.1,0.2,0,0.9-1.6,3c-0.3,0.3-0.5,0.7-0.7,0.9
	C16.3,6.5,16.3,6.6,17.8,8z"/>
</svg>
